<svg xmlns="http://www.w3.org/2000/svg" viewBox="0 0 32.08 48.07"><defs><style>.cls-1{fill:none;}.cls-2,.cls-3{fill:#eac36a;}.cls-3{opacity:0.3;}</style></defs><title>light</title><g id="Layer_2" data-name="Layer 2"><g id="Layer_1-2" data-name="Layer 1"><path class="cls-1" d="M6.81,22.11a9.66,9.66,0,0,0,.67,3.68c0-.07,0-.14,0-.22A11.78,11.78,0,0,1,19.25,13.79a11.46,11.46,0,0,1,1.17.06A9.1,9.1,0,0,0,16,12.72,9.32,9.32,0,0,0,6.81,22.11Z"/><path class="cls-2" d="M21.68,39.06l-11.49.84a1.68,1.68,0,0,0,.12,3.36h.12l11.49-.84a1.68,1.68,0,0,0-.24-3.36Z"/><path class="cls-2" d="M22,37a2,2,0,0,0,.64-.18q-.36.11-.72.18Z"/><path class="cls-2" d="M18,44.38l-4.17.33A1.68,1.68,0,0,0,14,48.07h.13l4.17-.32A1.69,1.69,0,0,0,18,44.38Z"/><path class="cls-3" d="M28.67,22.11a12.47,12.47,0,0,1-5.05,10.08v3.17a1.7,1.7,0,0,1-1,1.5,11.78,11.78,0,0,0,5.15-19.39A12.76,12.76,0,0,1,28.67,22.11Z"/><path class="cls-3" d="M7.47,25.57c0,.08,0,.15,0,.22a8.13,8.13,0,0,0,3.6,4,1.65,1.65,0,0,1,.76,1.46v3.23l8.42-.66V31.24a1.62,1.62,0,0,1,.82-1.49,8.37,8.37,0,0,0,4.19-7.64,9.44,9.44,0,0,0-4.85-8.26,11.46,11.46,0,0,0-1.17-.06A11.78,11.78,0,0,0,7.47,25.57Zm15.29-3.49a1.47,1.47,0,0,1-1.46,1.33h-.14a1.46,1.46,0,0,1-1.32-1.6,3.24,3.24,0,0,0-2.11-3.36,1.47,1.47,0,0,1,1-2.78A6.19,6.19,0,0,1,22.76,22.08Z"/><path class="cls-3" d="M19.25,37.36A11.75,11.75,0,0,0,21.92,37l-3.43.28C18.75,37.34,19,37.36,19.25,37.36Z"/><path class="cls-2" d="M23.62,35.36V32.19a12.47,12.47,0,0,0,5.05-10.08,12.76,12.76,0,0,0-.88-4.64,11.72,11.72,0,0,0-7.37-3.62,9.44,9.44,0,0,1,4.85,8.26,8.37,8.37,0,0,1-4.19,7.64,1.62,1.62,0,0,0-.82,1.49v2.57l-8.42.66V31.24a1.65,1.65,0,0,0-.76-1.46,8.13,8.13,0,0,1-3.6-4,11.77,11.77,0,0,0,11,11.53L21.92,37q.36-.07.72-.18A1.7,1.7,0,0,0,23.62,35.36Z"/><path class="cls-2" d="M27.79,17.47A12.66,12.66,0,0,0,16.05,9.35,12.74,12.74,0,0,0,3.42,22.11,11.58,11.58,0,0,0,8.47,32.17v4.12a1.8,1.8,0,0,0,.62,1.24,1.76,1.76,0,0,0,1.18.44h.15l8.07-.65L21.92,37q.36-.07.72-.18a1.7,1.7,0,0,0,1-1.5V32.19a12.47,12.47,0,0,0,5.05-10.08A12.76,12.76,0,0,0,27.79,17.47ZM21.08,29.75a1.62,1.62,0,0,0-.82,1.49v2.57l-8.42.66V31.24a1.65,1.65,0,0,0-.76-1.46,8.13,8.13,0,0,1-3.6-4,9.66,9.66,0,0,1-.67-3.68A9.32,9.32,0,0,1,16,12.72a9.1,9.1,0,0,1,4.39,1.13,9.44,9.44,0,0,1,4.85,8.26A8.37,8.37,0,0,1,21.08,29.75Z"/><path class="cls-2" d="M16.86,16.56a1.47,1.47,0,0,0,.87,1.88,3.24,3.24,0,0,1,2.11,3.36,1.46,1.46,0,0,0,1.32,1.6h.14a1.47,1.47,0,0,0,1.46-1.33,6.19,6.19,0,0,0-4.05-6.42A1.46,1.46,0,0,0,16.86,16.56Z"/><path class="cls-3" d="M16.86,16.56a1.47,1.47,0,0,0,.87,1.88,3.24,3.24,0,0,1,2.11,3.36,1.46,1.46,0,0,0,1.32,1.6h.14a1.47,1.47,0,0,0,1.46-1.33,6.19,6.19,0,0,0-4.05-6.42A1.46,1.46,0,0,0,16.86,16.56Z"/><path class="cls-2" d="M16.25,6.69a2,2,0,0,0,2-2V2a2,2,0,0,0-4,0V4.69A2,2,0,0,0,16.25,6.69Z"/><path class="cls-2" d="M31.35,5.77A2,2,0,0,0,28.54,6L26.83,8.12a2,2,0,0,0,3.1,2.54l1.7-2.08A2,2,0,0,0,31.35,5.77Z"/><path class="cls-2" d="M5,10.94a2,2,0,0,0,.28-2.82L3.55,6A2,2,0,0,0,.45,8.58l1.71,2.08A2,2,0,0,0,5,10.94Z"/></g></g></svg>