<svg xmlns="http://www.w3.org/2000/svg" viewBox="0 0 398.55 69.57"><defs><style>.cls-1{fill:#fff;}</style></defs><title>logoPanamerican-noclaim-white</title><g id="Layer_2" data-name="Layer 2"><g id="Layer_1-2" data-name="Layer 1"><path class="cls-1" d="M199.29,69.57c125.4,0,199.26-8.23,199.26-30.64s-81.36-29.42-87.75-30a3.82,3.82,0,0,0,0,7.64c4.55.35,85.23,5.1,85.23,22.41,0,18.15-94.35,23.27-196.74,23.27S2.52,57.08,2.52,38.93c0-17.31,80.69-22.06,85.24-22.41a3.82,3.82,0,1,0,0-7.64C81.37,9.51,0,16.57,0,38.93S73.88,69.57,199.29,69.57"/><polygon class="cls-1" points="97.92 2.75 109.05 2.5 109.09 4.51 100.66 4.71 100.72 7.95 108.83 7.75 108.87 9.76 100.78 9.95 100.86 13.52 109.46 13.31 109.49 15.32 98.22 15.58 97.92 2.75"/><path class="cls-1" d="M111.78,2.37l6.9-.29c5-.21,6.39,2.62,6.54,6.27.12,2.76-1,6.35-5.36,6.53l-7.54.31Zm3.14,10.7,3.78-.17c1.94-.07,4-.79,3.83-4.55-.18-4.15-2.83-4.29-4.33-4.22l-3.64.14Z"/><polygon class="cls-1" points="127.85 1.71 130.55 1.59 131.09 14.4 128.41 14.51 127.85 1.71"/><polygon class="cls-1" points="138 3.31 133.19 3.52 133.11 1.5 145.41 1.02 145.49 3.02 140.69 3.21 141.11 14.02 138.43 14.11 138 3.31"/><path class="cls-1" d="M145.88,7.36c-.12-3.61,1.9-6.83,7.31-7s7.66,2.92,7.77,6.53-1.88,6.82-7.32,7S146,11,145.88,7.36M158.16,7a4.74,4.74,0,1,0-9.48.31A4.74,4.74,0,1,0,158.16,7"/><path class="cls-1" d="M163.29.39l8.14-.18c3.25-.06,4.34,1.41,4.39,3.4a3,3,0,0,1-2.06,3.12v0c1.53.31,1.91,1.62,1.94,3.43a5.36,5.36,0,0,0,.61,2.73l-2.92.08a4.34,4.34,0,0,1-.36-1.94c-.05-1.83-.32-3.13-2.29-3.07l-4.59.09.11,5.07-2.69.06ZM170.76,6c1.5,0,2.3-.51,2.27-1.93s-.93-1.84-2.34-1.81L166,2.35l.09,3.73Z"/><polygon class="cls-1" points="178.56 0.1 181.25 0.07 181.42 12.88 178.73 12.92 178.56 0.1"/><path class="cls-1" d="M188.74,0h3.2l5.75,12.8-3,0-1.35-3.19-6,0L186,12.83l-2.91,0Zm3.77,7.62-2.19-5.4-2.21,5.4Z"/><polygon class="cls-1" points="199.5 0.02 202.18 0.05 202.05 10.76 209.84 10.85 209.82 12.98 199.32 12.83 199.5 0.02"/><polygon class="cls-1" points="219.02 0.33 222.89 0.45 227.1 10.51 231.83 0.68 235.67 0.8 235.33 13.6 232.79 13.54 233.19 2.95 233.15 2.94 228.12 13.41 225.82 13.36 221.4 2.62 221.36 2.62 221.19 13.22 218.66 13.16 219.02 0.33"/><polygon class="cls-1" points="238.91 0.91 250.02 1.31 249.95 3.31 241.52 3.02 241.41 6.25 249.5 6.54 249.44 8.55 241.34 8.26 241.22 11.8 249.79 12.11 249.71 14.11 238.45 13.72 238.91 0.91"/><path class="cls-1" d="M252.81,1.4l6.92.29c5,.22,6.13,3.15,6,6.8-.11,2.75-1.52,6.23-5.87,6.06l-7.55-.33ZM255,12.32l3.79.17c1.94.07,4-.47,4.18-4.22.17-4.17-2.44-4.52-3.95-4.59l-3.64-.15Z"/><polygon class="cls-1" points="268.68 2.09 271.36 2.21 270.77 15.03 268.08 14.89 268.68 2.09"/><path class="cls-1" d="M284.86,7.63c-.18-2-1.71-3.19-4-3.29-2.48-.14-4.42,1.42-4.59,4.76a4.31,4.31,0,0,0,4.29,4.74,3.65,3.65,0,0,0,4.1-3l2.91.15c-.51,2.54-2.31,5.15-7.59,4.88-4.63-.24-6.68-3.51-6.49-7.11S276,2.06,281,2.32c4.41.23,6.58,2.67,6.73,5.45Z"/><path class="cls-1" d="M295,3.46l3.19.17,4.95,13.15-3-.19L299,13.33,293,13l-1.51,3.1-2.89-.17Zm3.3,7.81-1.87-5.51L293.89,11Z"/><path class="cls-1" d="M66.42,25.94c5.71,0,9.3,5.85,9.3,11,0,4.67-3.08,9.89-8.25,9.89a8.86,8.86,0,0,1-6.92-3.49v1.49a22.17,22.17,0,0,0,.28,3.56c.41,1.36,2.51,1.53,2.51,2.76s-1.24,1.4-2.19,1.4H53.93c-.9,0-2-.13-2.11-1.27,0-1.4,1.49-1.27,2.11-2.17.51-.64.59-2.67.59-4.18V34.42c0-3.82-2.8-2.15-2.8-4.05,0-.59.59-.95,1-1.21l5.44-2.87a2.37,2.37,0,0,1,.88-.26c1.39,0,1.47,1.44,1.47,2.57v.56c1.55-1.64,3.47-3.22,5.87-3.22M65.7,29.1c-3.64,0-5.4,4-5.4,7.08,0,2.28.59,5.86,3.54,5.86,3.67,0,6.26-4.35,6.26-7.62,0-2.5-1.6-5.32-4.4-5.32"/><path class="cls-1" d="M84.34,46.71c-3.63,0-7.53-1.94-7.53-6,0-4.85,5.71-7,9.74-7,1,0,1.92.05,2.87.09-.81-2.21-1.81-4.49-4.58-4.49s-3.94,2-5.27,2a1,1,0,0,1-1-.87c0-3.12,5.8-4.71,8.21-4.71,5.36,0,7.35,3,8.76,7.71l2.13,6.94c.31,1.1,1.28,2.9,2.55,2.9a1.73,1.73,0,0,0,1-.54,2.1,2.1,0,0,1,.68,1.55c0,2-2.86,2.44-4.36,2.44a5.47,5.47,0,0,1-5-2.59,15.18,15.18,0,0,1-8.25,2.59m6-9a2.37,2.37,0,0,0-2.56-1.46c-2,0-4.26,1.15-4.26,3.34a4,4,0,0,0,4.18,3.71c1.32,0,3.63-.45,3.63-2.19a10.13,10.13,0,0,0-1-3.4"/><path class="cls-1" d="M117.85,26.29c3.86,0,5.49,3.28,6.35,6.49l2,7.26c.58,2.06.63,2.74,2.4,3.9a1.26,1.26,0,0,1,.68,1.1c0,1-.94,1.31-1.82,1.31h-8.07c-.73,0-1.63-.31-1.63-1.22,0-1.49,2.4-1.45,2.4-3.22a5.56,5.56,0,0,0-.18-1.27l-1.59-6.09c-.36-1.58-1.23-4.26-3.27-4.26-2.34,0-2.8,2.86-2.8,4.61v3a29.13,29.13,0,0,0,.27,4.4c.32,1.27,2.3,1.49,2.3,2.86,0,1-1.22,1.23-2,1.23h-7.22c-.78,0-2-.2-2-1.23,0-1.69,2.63-.73,2.63-6.05,0-1.39,0-2.9,0-4.3,0-3.72-2.73-2.26-2.73-3.86a1.72,1.72,0,0,1,.82-1.23l6.21-3.25a1.94,1.94,0,0,1,.69-.29c.85,0,1.09,1,1.09,1.74v1.4c1.63-1.5,3.12-3,5.49-3"/><path class="cls-1" d="M137.29,46.71c-3.62,0-7.52-1.94-7.52-6,0-4.85,5.71-7,9.76-7,.94,0,1.9.05,2.85.09-.81-2.21-1.81-4.49-4.58-4.49s-3.94,2-5.26,2a1,1,0,0,1-1-.87c0-3.12,5.81-4.71,8.22-4.71,5.33,0,7.34,3,8.76,7.71l2.12,6.94c.31,1.1,1.27,2.9,2.54,2.9a1.75,1.75,0,0,0,1-.54,2.06,2.06,0,0,1,.68,1.55c0,2-2.86,2.44-4.36,2.44a5.48,5.48,0,0,1-5-2.59,15.19,15.19,0,0,1-8.26,2.59m5-9a2.34,2.34,0,0,0-2.54-1.46c-2,0-4.26,1.15-4.26,3.34a4,4,0,0,0,4.16,3.71c1.33,0,3.64-.45,3.64-2.19a10.14,10.14,0,0,0-1-3.4"/><path class="cls-1" d="M181.89,26.2c3,0,4.94,1.82,5.81,4.63L190.5,40a11.29,11.29,0,0,0,1.05,2.63A4.57,4.57,0,0,0,193.14,44a1.28,1.28,0,0,1,.77,1.14c0,.9-.86,1.18-1.58,1.18h-8.4c-.91,0-2.18-.2-2.18-1.32,0-1.4,2.72-1.5,2.77-2.73a7.58,7.58,0,0,0-.41-2.27L182,33.15c-.41-1.32-1.22-2.6-2.72-2.6-2.12,0-2.73,2.42-2.73,4.15v3a29.82,29.82,0,0,0,.28,4.55c.36,1.37,2.32,1.54,2.32,2.86,0,1-1.23,1.23-2,1.23H170c-.81,0-2-.2-2-1.23,0-1.73,2.63-.64,2.63-6.05,0-.71,0-1.53,0-2.16s0-1.19,0-1.9c0-2.09-.31-4.59-2.68-4.59s-3.72,2.23-3.72,4.31c0,1.13,0,2.27,0,3.44a17.26,17.26,0,0,0,.37,4.09c.28,1.32,2.27,1.45,2.27,2.86,0,1-1.19,1.23-2,1.23h-7.22c-.78,0-2-.2-2-1.23,0-1.69,2.63-.73,2.63-6.05,0-1.31,0-2.73,0-4,0-4.3-2.87-2.35-2.87-4.34,0-.69.59-1.05,1.15-1.34l6-3.08a3.45,3.45,0,0,1,.9-.26c.77,0,.87,1,.87,2.08v1.23c1.73-1.73,3.81-3.24,6.31-3.24a6.11,6.11,0,0,1,5.81,3.24c1.45-1.78,3.17-3.14,5.63-3.14"/><path class="cls-1" d="M207.52,43c3.73,0,6.09-3.36,6.9-3.4a1.1,1.1,0,0,1,1.12,1c0,1.17-1.35,2.33-2.12,3a15.68,15.68,0,0,1-9.35,3c-6.13,0-10.76-4.21-10.76-10.48,0-5.66,5.19-10.34,10.76-10.34a10.25,10.25,0,0,1,8,3.63c.33.44,1.91,2.45,1.91,3.35,0,.51-2,1.41-2.8,1.69l-9.76,4.35A6.43,6.43,0,0,0,207.52,43m-1.91-8.61c.37-.19,1.06-.41,1.22-.87,0,0,0-.23,0-.27,0-1.9-2.49-4.44-4.45-4.44a3.33,3.33,0,0,0-3.12,3.53c0,.73.28,4.13,1.41,4.13a2,2,0,0,0,.72-.23Z"/><path class="cls-1" d="M232.29,26c.68,0,2.41,0,2.5,1a3.6,3.6,0,0,1-.14,1l-1.72,5.17c-.18.54-.41,1.13-1.09,1.18-1.09,0-1.64-2.46-3.58-2.46-2.86,0-3.51,2.87-3.51,5.14v2.5a7.58,7.58,0,0,0,.42,3.08c.49,1,2.36,1,2.36,2.4,0,1.09-1.18,1.37-2,1.37h-7.35c-1,0-2.1-.14-2.18-1.28,0-1.36,1.52-1.27,2.18-2.18.5-.63.59-2.68.59-4.17V33.86c0-2.8-2.64-1.13-2.64-3.11a1.25,1.25,0,0,1,.73-1l5.94-3.45a1.85,1.85,0,0,1,.86-.3c1.1,0,1.18,1,1.18,1.89s.1,1.77.1,2.63C227,28.07,228.79,26,232.29,26"/><path class="cls-1" d="M244.09,37v1.68a21.13,21.13,0,0,0,.26,3.54c.32,1.3,2.46,1.36,2.46,2.76,0,1.19-1.19,1.41-2.14,1.41h-7.25c-1,0-2.09-.13-2.19-1.27,0-1.36,1.54-1.27,2.19-2.18.49-.63.59-2.68.59-4.17v-5c0-4.17-2.27-1.76-2.27-3.76,0-.72.68-1.08,1.27-1.37l5.4-2.36a2.32,2.32,0,0,1,.82-.26c.76,0,.86.86.86,1.49V37Zm-5.31-13.52a2.16,2.16,0,0,1-2.19-2.05c0-2.27,3.46-3.66,5.31-3.66a2.07,2.07,0,0,1,2.19,1.88c0,2.38-3.32,3.83-5.31,3.83"/><path class="cls-1" d="M265.77,33.78c-.24.45-.5.92-1,.92-1.49,0-1.45-6.41-5.89-6.41-3.53,0-4.49,4.36-4.49,7.08,0,3.81,2,8.12,6.39,8.12,3.91,0,6-3.86,7.13-4a1,1,0,0,1,1.05.78c0,1.4-1,2.4-2,3.32a11.58,11.58,0,0,1-8,3c-6.12,0-11.58-3.62-11.58-10.15s6.19-10.71,12.3-10.71a14.83,14.83,0,0,1,6.85,1.59c.55.27,1.43.59,1.43,1.31a1.75,1.75,0,0,1-.24.95Z"/><path class="cls-1" d="M277.33,46.71c-3.64,0-7.53-1.94-7.53-6,0-4.85,5.71-7,9.75-7,1,0,1.92.05,2.86.09-.82-2.21-1.82-4.49-4.59-4.49s-3.95,2-5.25,2a1,1,0,0,1-1-.87c0-3.12,5.81-4.71,8.22-4.71,5.35,0,7.34,3,8.75,7.71l2.14,6.94c.32,1.1,1.27,2.9,2.54,2.9a1.65,1.65,0,0,0,1-.54,2.07,2.07,0,0,1,.69,1.55c0,2-2.86,2.44-4.36,2.44a5.44,5.44,0,0,1-5-2.59,15.19,15.19,0,0,1-8.26,2.59m6.88-9a2.33,2.33,0,0,0-2.54-1.46c-2,0-4.26,1.15-4.26,3.34a4,4,0,0,0,4.18,3.71c1.31,0,3.62-.45,3.62-2.19a10.38,10.38,0,0,0-1-3.4"/><path class="cls-1" d="M310.83,26.29c3.85,0,5.49,3.28,6.36,6.49l2,7.26c.6,2.06.65,2.74,2.41,3.9a1.26,1.26,0,0,1,.68,1.1c0,1-.95,1.31-1.82,1.31h-8.06c-.73,0-1.65-.31-1.65-1.22,0-1.49,2.4-1.45,2.4-3.22a5.57,5.57,0,0,0-.17-1.27l-1.59-6.09c-.36-1.58-1.21-4.26-3.26-4.26-2.36,0-2.82,2.86-2.82,4.61v3a26.74,26.74,0,0,0,.28,4.4c.31,1.27,2.3,1.49,2.3,2.86,0,1-1.21,1.23-2,1.23h-7.2c-.78,0-2-.2-2-1.23,0-1.69,2.62-.73,2.62-6.05,0-1.39,0-2.9,0-4.3,0-3.72-2.72-2.26-2.72-3.86a1.7,1.7,0,0,1,.81-1.23l6.22-3.25a2.15,2.15,0,0,1,.68-.29c.86,0,1.09,1,1.09,1.74v1.4c1.64-1.5,3.14-3,5.49-3"/><path class="cls-1" d="M330.3,46.71c-3.64,0-7.54-1.94-7.54-6,0-4.85,5.71-7,9.75-7,.94,0,1.92.05,2.87.09-.83-2.21-1.83-4.49-4.59-4.49s-4,2-5.26,2a1,1,0,0,1-1-.87c0-3.12,5.8-4.71,8.19-4.71,5.36,0,7.37,3,8.77,7.71l2.13,6.94c.32,1.1,1.26,2.9,2.54,2.9a1.75,1.75,0,0,0,1.05-.54,2.05,2.05,0,0,1,.67,1.55c0,2-2.86,2.44-4.35,2.44a5.43,5.43,0,0,1-5-2.59,15.23,15.23,0,0,1-8.25,2.59m5.93-9a2.34,2.34,0,0,0-2.55-1.46c-2,0-4.26,1.15-4.26,3.34a4,4,0,0,0,4.17,3.71c1.33,0,3.65-.45,3.65-2.19a9.94,9.94,0,0,0-1-3.4"/></g></g></svg>