<svg xmlns="http://www.w3.org/2000/svg" viewBox="0 0 47.34 26.91"><defs><style>.cls-1,.cls-2{fill:#eac36a;}.cls-1{opacity:0.3;}</style></defs><title>quotesYellow</title><g id="Layer_2" data-name="Layer 2"><g id="Layer_1-2" data-name="Layer 1"><path class="cls-1" d="M23.17,11.8a6.88,6.88,0,0,1,.1-3.13,6.5,6.5,0,0,1,1.41-2.84A7.83,7.83,0,0,1,26.87,4.1a10.15,10.15,0,0,0-15.69-.74,7.13,7.13,0,0,1,1.3-.11,5.68,5.68,0,0,1,3.19.89,5.67,5.67,0,0,1,2.07,2.65A6.73,6.73,0,0,1,18,10.1a12.22,12.22,0,0,1-.81,3.06,25,25,0,0,1-3,5.34c-.14.19-.29.36-.43.55a10.15,10.15,0,0,0,13.63-3.56A5,5,0,0,1,23.17,11.8Z"/><path class="cls-1" d="M37.17,0a10.12,10.12,0,0,0-7.46,3.28q.33,0,.66,0a5.68,5.68,0,0,1,3.19.89,5.65,5.65,0,0,1,2.06,2.65,6.62,6.62,0,0,1,.3,3.31,12.67,12.67,0,0,1-.81,3.06,24.64,24.64,0,0,1-3,5.34,3.65,3.65,0,0,1-.24.31,10.15,10.15,0,0,0,15.52-8.64A10.17,10.17,0,0,0,37.17,0Z"/><path class="cls-2" d="M35.11,13.16a12.67,12.67,0,0,0,.81-3.06,6.62,6.62,0,0,0-.3-3.31,5.65,5.65,0,0,0-2.06-2.65,5.68,5.68,0,0,0-3.19-.89q-.33,0-.66,0a7.14,7.14,0,0,0-2.49.63l-.35.19a7.83,7.83,0,0,0-2.19,1.73,6.5,6.5,0,0,0-1.41,2.84,6.88,6.88,0,0,0-.1,3.13,5,5,0,0,0,4.21,3.69l.08,0a24,24,0,0,1-3.6,5.2,31.28,31.28,0,0,1-2.73,2.67,37.82,37.82,0,0,1-3,2.31.47.47,0,0,0-.21.36.49.49,0,0,0,.45.53h.07l4.35.33a.63.63,0,0,0,.4-.1l.08-.06A30.79,30.79,0,0,0,28,23a31.1,31.1,0,0,0,3.8-4.22,3.65,3.65,0,0,0,.24-.31A24.64,24.64,0,0,0,35.11,13.16Z"/><path class="cls-2" d="M17.22,13.16A12.22,12.22,0,0,0,18,10.1a6.73,6.73,0,0,0-.29-3.31,5.67,5.67,0,0,0-2.07-2.65,5.68,5.68,0,0,0-3.19-.89,7.13,7.13,0,0,0-1.3.11,7,7,0,0,0-1.85.55A7.69,7.69,0,0,0,6.8,5.83,6.4,6.4,0,0,0,5.39,8.67a6.61,6.61,0,0,0-.1,3.13,5,5,0,0,0,4.28,3.71A24,24,0,0,1,6,20.71a31.28,31.28,0,0,1-2.73,2.67,37.82,37.82,0,0,1-3,2.31.47.47,0,0,0-.21.36.49.49,0,0,0,.45.53H.53l4.34.33a.63.63,0,0,0,.4-.1l.09-.06A30.71,30.71,0,0,0,10.13,23a31,31,0,0,0,3.62-4c.14-.19.29-.36.43-.55A25,25,0,0,0,17.22,13.16Z"/></g></g></svg>